<svg width="64" height="64" viewBox="0 0 64 64" fill="none" xmlns="http://www.w3.org/2000/svg">
  <path d="M8 56H56V60H8V56Z" fill="currentColor"/>
  <ellipse cx="32" cy="52" rx="20" ry="4" fill="currentColor" opacity="0.2"/>
  <path d="M32 20C32 16 28 12 24 12C20 12 16 16 16 20V24C16 28 20 32 24 32C28 32 32 28 32 24V20Z" fill="currentColor" opacity="0.3"/>
  <path d="M48 28C48 24 44 20 40 20C36 20 32 24 32 28V32C32 36 36 40 40 40C44 40 48 36 48 32V28Z" fill="currentColor" opacity="0.3"/>
  <path d="M24 32V48C24 50.2091 25.7909 52 28 52C30.2091 52 32 50.2091 32 48V32" stroke="currentColor" stroke-width="2"/>
  <path d="M40 40V48C40 50.2091 38.2091 52 36 52C33.7909 52 32 50.2091 32 48V40" stroke="currentColor" stroke-width="2"/>
  <circle cx="20" cy="36" r="6" fill="currentColor" opacity="0.2"/>
  <path d="M20 30C23.3137 30 26 32.6863 26 36C26 39.3137 23.3137 42 20 42C16.6863 42 14 39.3137 14 36C14 32.6863 16.6863 30 20 30Z" stroke="currentColor" stroke-width="2"/>
  <path d="M18 34L20 36L22 34" stroke="currentColor" stroke-width="2" stroke-linecap="round" stroke-linejoin="round"/>
  <circle cx="44" cy="44" r="4" fill="currentColor" opacity="0.2"/>
  <path d="M44 40C46.2091 40 48 41.7909 48 44C48 46.2091 46.2091 48 44 48C41.7909 48 40 46.2091 40 44C40 41.7909 41.7909 40 44 40Z" stroke="currentColor" stroke-width="2"/>
  <path d="M42 42L44 44L46 42" stroke="currentColor" stroke-width="2" stroke-linecap="round" stroke-linejoin="round"/>
</svg>
