<svg width="64" height="64" viewBox="0 0 64 64" fill="none" xmlns="http://www.w3.org/2000/svg">
  <rect x="8" y="12" width="48" height="40" rx="4" stroke="currentColor" stroke-width="2" fill="none"/>
  <rect x="12" y="16" width="40" height="32" rx="2" fill="currentColor" opacity="0.1"/>
  <path d="M20 24H28M20 28H32M20 32H24" stroke="currentColor" stroke-width="2" stroke-linecap="round"/>
  <rect x="36" y="22" width="12" height="8" rx="2" fill="currentColor" opacity="0.3"/>
  <rect x="36" y="34" width="12" height="8" rx="2" fill="currentColor" opacity="0.3"/>
  <path d="M16 40L24 32L28 36L32 32L36 36L44 28L48 32V44H16V40Z" fill="currentColor" opacity="0.2"/>
  <circle cx="20" cy="26" r="2" fill="currentColor" opacity="0.4"/>
  <path d="M12 8V16M20 8V16M28 8V16M36 8V16M44 8V16M52 8V16" stroke="currentColor" stroke-width="2" stroke-linecap="round"/>
  <path d="M8 56H56" stroke="currentColor" stroke-width="2" stroke-linecap="round"/>
</svg>
